GIL11_free1_ik
nRows=3
nColumns=375

# SIMM Motion File Header:
name GIL11_free1_ik
datacolumns 375
datarows 3
otherdata 1
range 0.36667000 0.38333000
endheader
time	pelvis_tx	pelvis_ty	pelvis_tz	pelvis_tilt	pelvis_list	pelvis_rotation	hip_flexion_r	hip_adduction_r	hip_rotation_r	knee_angle_r	ankle_angle_r	hip_flexion_l	hip_adduction_l	hip_rotation_l	knee_angle_l	ankle_angle_l	lumbar_extension	lumbar_bending	lumbar_rotation	subtalar_angle_r	mtp_angle_r	subtalar_angle_l	mtp_angle_l	asis_r_px	asis_r_py	asis_r_pz	asis_l_px	asis_l_py	asis_l_pz	midasis_px	midasis_py	midasis_pz	psis_r_px	psis_r_py	psis_r_pz	psis_l_px	psis_l_py	psis_l_pz	hip_r_px	hip_r_py	hip_r_pz	hip_l_px	hip_l_py	hip_l_pz	midhip_px	midhip_py	midhip_pz	epicondLat_r_px	epicondLat_r_py	epicondLat_r_pz	epicondMed_r_px	epicondMed_r_py	epicondMed_r_pz	thighwand_r_px	thighwand_r_py	thighwand_r_pz	upperleg1_r_px	upperleg1_r_py	upperleg1_r_pz	upperleg2_r_px	upperleg2_r_py	upperleg2_r_pz	malleolusLat_r_px	malleolusLat_r_py	malleolusLat_r_pz	malleolusMedv_r_px	malleolusMedv_r_py	malleolusMedv_r_pz	shankwand_r_px	shankwand_r_py	shankwand_r_pz	lowerleg1_r_px	lowerleg1_r_py	lowerleg1_r_pz	knee_r_px	knee_r_py	knee_r_pz	ankle_r_px	ankle_r_py	ankle_r_pz	toe_r_px	toe_r_py	toe_r_pz	epicondLat_l_px	epicondLat_l_py	epicondLat_l_pz	epicondMed_l_px	epicondMed_l_py	epicondMed_l_pz	thighwand_l_px	thighwand_l_py	thighwand_l_pz	upperleg1_l_px	upperleg1_l_py	upperleg1_l_pz	upperleg2_l_px	upperleg2_l_py	upperleg2_l_pz	malleolusLat_l_px	malleolusLat_l_py	malleolusLat_l_pz	malleolusMedv_l_px	malleolusMedv_l_py	malleolusMedv_l_pz	shankwand_l_px	shankwand_l_py	shankwand_l_pz	lowerleg1_l_px	lowerleg1_l_py	lowerleg1_l_pz	knee_l_px	knee_l_py	knee_l_pz	ankle_l_px	ankle_l_py	ankle_l_pz	toe_l_px	toe_l_py	toe_l_pz	subclavicle_r_px	subclavicle_r_py	subclavicle_r_pz	subclavicle_l_px	subclavicle_l_py	subclavicle_l_pz	neck_px	neck_py	neck_pz	sternalnotch_px	sternalnotch_py	sternalnotch_pz	xyphoidprocess_px	xyphoidprocess_py	xyphoidprocess_pz	midhip_tx	midhip_ty	midhip_tz	hip_r_tx	hip_r_ty	hip_r_tz	hip_l_tx	hip_l_ty	hip_l_tz	knee_r_tx	knee_r_ty	knee_r_tz	knee_l_tx	knee_l_ty	knee_l_tz	ankle_r_tx	ankle_r_ty	ankle_r_tz	ankle_l_tx	ankle_l_ty	ankle_l_tz	midasis_tx	midasis_ty	midasis_tz	asis_r_tx	asis_r_ty	asis_r_tz	asis_l_tx	asis_l_ty	asis_l_tz	psis_r_tx	psis_r_ty	psis_r_tz	psis_l_tx	psis_l_ty	psis_l_tz	epicondLat_r_tx	epicondLat_r_ty	epicondLat_r_tz	epicondLat_l_tx	epicondLat_l_ty	epicondLat_l_tz	epicondMed_r_tx	epicondMed_r_ty	epicondMed_r_tz	epicondMed_l_tx	epicondMed_l_ty	epicondMed_l_tz	malleolusLat_r_tx	malleolusLat_r_ty	malleolusLat_r_tz	malleolusLat_l_tx	malleolusLat_l_ty	malleolusLat_l_tz	malleolusMedv_r_tx	malleolusMedv_r_ty	malleolusMedv_r_tz	malleolusMedv_l_tx	malleolusMedv_l_ty	malleolusMedv_l_tz	neck_tx	neck_ty	neck_tz	subclavicle_r_tx	subclavicle_r_ty	subclavicle_r_tz	subclavicle_l_tx	subclavicle_l_ty	subclavicle_l_tz	sternalnotch_tx	sternalnotch_ty	sternalnotch_tz	xyphoidprocess_tx	xyphoidprocess_ty	xyphoidprocess_tz	thighwand_r_tx	thighwand_r_ty	thighwand_r_tz	thighwand_l_tx	thighwand_l_ty	thighwand_l_tz	upperleg1_r_tx	upperleg1_r_ty	upperleg1_r_tz	upperleg1_l_tx	upperleg1_l_ty	upperleg1_l_tz	upperleg2_r_tx	upperleg2_r_ty	upperleg2_r_tz	upperleg2_l_tx	upperleg2_l_ty	upperleg2_l_tz	shankwand_r_tx	shankwand_r_ty	shankwand_r_tz	shankwand_l_tx	shankwand_l_ty	shankwand_l_tz	lowerleg1_r_tx	lowerleg1_r_ty	lowerleg1_r_tz	lowerleg1_l_tx	lowerleg1_l_ty	lowerleg1_l_tz	toe_r_tx	toe_r_ty	toe_r_tz	toe_l_tx	toe_l_ty	toe_l_tz	ground_force_vx	ground_force_vy	ground_force_vz	ground_force_px	ground_force_py	ground_force_pz	ground_force_vx	ground_force_vy	ground_force_vz	ground_force_px	ground_force_py	ground_force_pz	ground_torque_x	ground_torque_y	ground_torque_z	ground_torque_x	ground_torque_y	ground_torque_z	ground_marker_px	ground_marker_py	ground_marker_pz	ground_marker_px	ground_marker_py	ground_marker_pz	ground_marker_px	ground_marker_py	ground_marker_pz	ground_marker_px	ground_marker_py	ground_marker_pz	ground_marker_px	ground_marker_py	ground_marker_pz	ground_marker_px	ground_marker_py	ground_marker_pz	ground_marker_px	ground_marker_py	ground_marker_pz	ground_marker_px	ground_marker_py	ground_marker_pz	ground_marker_px	ground_marker_py	ground_marker_pz	ground_marker_px	ground_marker_py	ground_marker_pz	ground_marker_px	ground_marker_py	ground_marker_pz	ground_marker_px	ground_marker_py	ground_marker_pz	ground_marker_px	ground_marker_py	ground_marker_pz	ground_marker_px	ground_marker_py	ground_marker_pz	ground_marker_px	ground_marker_py	ground_marker_pz	ground_marker_px	ground_marker_py	ground_marker_pz	ground_marker_px	ground_marker_py	ground_marker_pz	ground_marker_px	ground_marker_py	ground_marker_pz	ground_marker_px	ground_marker_py	ground_marker_pz	ground_marker_px	ground_marker_py	ground_marker_pz	ground_marker_px	ground_marker_py	ground_marker_pz	ground_marker_px	ground_marker_py	ground_marker_pz	ground_marker_px	ground_marker_py	ground_marker_pz	ground_marker_px	ground_marker_py	ground_marker_pz	ground_marker_px	ground_marker_py	ground_marker_pz	ground_marker_px	ground_marker_py	ground_marker_pz	ground_marker_px	ground_marker_py	ground_marker_pz	ground_marker_px	ground_marker_py	ground_marker_pz	ground_marker_px	ground_marker_py	ground_marker_pz	ground_marker_px	ground_marker_py	ground_marker_pz	ground_marker_px	ground_marker_py	ground_marker_pz	ground_marker_px	ground_marker_py	ground_marker_pz	ground_marker_px	ground_marker_py	ground_marker_pz	ground_marker_px	ground_marker_py	ground_marker_pz	ground_marker_px	ground_marker_py	ground_marker_pz	ground_marker_px	ground_marker_py	ground_marker_pz	ground_marker_px	ground_marker_py	ground_marker_pz
      0.36667000	      0.85769561	      0.86902221	     -0.32207057	     -6.92089639	      0.06007998	      5.71698748	     33.40635064	     -2.58827279	      0.45540852	    -44.03634121	      1.39148202	      5.71193853	      3.73969064	     14.67461467	    -11.56026504	      9.82232947	     -2.62026597	     -0.23270121	     -2.29554898	      0.00000000	      0.00000000	      0.00000000	      0.00000000	      0.91561267	      0.85169284	     -0.21669584	      0.89096407	      0.85828762	     -0.45054491	      0.87040314	      0.86748108	     -0.32335208	      0.72417008	      0.94564922	     -0.27904968	      0.71491070	      0.94355176	     -0.33292690	      0.79378148	      0.81550761	     -0.23931601	      0.77862561	      0.81750857	     -0.39200930	      0.78620354	      0.81650809	     -0.31566266	      0.99325897	      0.47613536	     -0.18451838	      0.98385344	      0.47208083	     -0.30113833	      1.06723399	      0.66600291	     -0.27077039	      0.98863754	      0.68521177	     -0.21259642	      1.01546937	      0.60141721	     -0.21008629	      0.83836706	      0.11220114	     -0.17394951	      0.86586041	      0.10277444	     -0.24351622	      0.85626617	      0.19263704	     -0.11204207	      0.86276856	      0.19710755	     -0.15563242	      0.96740906	      0.47388529	     -0.24365383	      0.85650146	      0.11831084	     -0.22306485	      0.93832640	      0.05070674	     -0.15971165	      0.81163881	      0.41839709	     -0.43552341	      0.79176918	      0.43458190	     -0.31430164	      0.85909041	      0.54429585	     -0.52041484	      0.79149674	      0.59899323	     -0.47457545	      0.79502677	      0.51282051	     -0.45603958	      0.67998987	      0.06007039	     -0.41497404	      0.69136802	      0.06845998	     -0.34572887	      0.80524040	      0.15767761	     -0.35509741	      0.76597036	      0.16518855	     -0.36872311	      0.77027331	      0.43959604	     -0.37199847	      0.69091392	      0.07518609	     -0.36393251	      0.79547051	      0.02566373	     -0.39062334	      0.89445571	      1.32223197	     -0.26638710	      0.89005262	      1.31820087	     -0.37212076	      0.76514566	      1.36896257	     -0.31135029	      0.88909784	      1.31662920	     -0.31844988	      0.93583854	      1.25164049	     -0.32175609	      0.79288400	      0.82372800	     -0.30922500	      0.78775700	      0.80627800	     -0.23425800	      0.76844600	      0.80963500	     -0.38511700	      0.96330900	      0.46162100	     -0.23389300	      0.76526700	      0.42598700	     -0.37134200	      0.85324100	      0.10963400	     -0.25128900	      0.68690600	      0.06837600	     -0.35171600	      0.87106600	      0.87832300	     -0.31695600	      0.88203600	      0.87579400	     -0.20114100	      0.86009600	      0.88085300	     -0.43277200	      0.68333900	      0.94406300	     -0.26270300	      0.67545900	      0.94227400	     -0.31681600	      0.96791200	      0.46402600	     -0.17612600	      0.77462300	      0.42385600	     -0.42854300	      0.97005900	      0.46716200	     -0.29177900	      0.77792900	      0.44112500	     -0.30902100	      0.83950700	      0.11207600	     -0.21380100	      0.67553400	      0.06876400	     -0.39006400	      0.86837100	      0.11506300	     -0.28338500	      0.69443400	      0.07861800	     -0.32599500	      0.76786300	      1.37907500	     -0.31118700	      0.89431200	      1.32161700	     -0.26711200	      0.88935200	      1.31570600	     -0.37286400	      0.88828500	      1.31523300	     -0.31908100	      0.92941900	      1.24658000	     -0.32102100	      1.04566500	      0.66025700	     -0.25360000	      0.81884100	      0.55483600	     -0.51937700	      0.96924100	      0.67521300	     -0.19167600	      0.75721300	      0.60673500	     -0.46659300	      0.99988600	      0.59271300	     -0.19499000	      0.76411300	      0.52068800	     -0.44948200	      0.85462700	      0.18676000	     -0.13852800	      0.80252700	      0.17442700	     -0.34632100	      0.86079200	      0.19541400	     -0.18154700	      0.76199700	      0.18101400	     -0.35731300	      0.93635800	      0.05887000	     -0.22090200	      0.79076100	      0.04165700	     -0.37568800	      0.00000000	      0.00000000	      0.00000000	      1.18090967	      0.00000000	     -0.25207571	      4.47950975	    525.54541196	     32.04687972	      0.77846503	      0.00000000	     -0.37208868	      0.00000000	      0.00000000	      0.00000000	      0.00000000	     -1.78227124	      0.00000000	      0.79288387	      0.82372832	     -0.30922490	      0.78775722	      0.80627841	     -0.23425764	      0.76844561	      0.80963546	     -0.38511717	      0.96330851	      0.46162054	     -0.23389310	      0.76526654	      0.42598748	     -0.37134218	      0.85324126	      0.10963389	     -0.25128943	      0.68690622	      0.06837629	     -0.35171643	      0.87106609	      0.87832344	     -0.31695625	      0.88203621	      0.87579393	     -0.20114069	      0.86009592	      0.88085288	     -0.43277180	      0.68333870	      0.94406259	     -0.26270333	      0.67545944	      0.94227433	     -0.31681576	      0.96791190	      0.46402639	     -0.17612615	      0.77462292	      0.42385617	     -0.42854285	      0.97005928	      0.46716189	     -0.29177880	      0.77792931	      0.44112480	     -0.30902055	      0.83950651	      0.11207597	     -0.21380085	      0.67553449	      0.06876355	     -0.39006397	      0.86837137	      0.11506278	     -0.28338459	      0.69443423	      0.07861824	     -0.32599542	      0.76786292	      1.37907529	     -0.31118664	      0.89431232	      1.32161701	     -0.26711169	      0.88935184	      1.31570601	     -0.37286401	      0.88828510	      1.31523299	     -0.31908050	      0.92941874	      1.24658048	     -0.32102069	      1.04566491	      0.66025734	     -0.25360012	      0.81884104	      0.55483592	     -0.51937717	      0.96924108	      0.67521334	     -0.19167595	      0.75721282	      0.60673451	     -0.46659285	      0.99988586	      0.59271330	     -0.19499043	      0.76411277	      0.52068818	     -0.44948155	      0.85462731	      0.18675983	     -0.13852799	      0.80252689	      0.17442662	     -0.34632137	      0.86079246	      0.19541369	     -0.18154714	      0.76199704	      0.18101390	     -0.35731336	      0.93635809	      0.05886995	     -0.22090209	      0.79076070	      0.04165678	     -0.37568840
      0.37500000	      0.86630003	      0.86809770	     -0.32181893	     -6.98780930	     -0.08989227	      5.87844494	     33.77029227	     -2.46830119	      0.73771332	    -41.28317459	      1.55532963	      5.01339857	      3.53195561	     15.05230926	    -11.28997304	     10.20466052	     -2.59021928	     -0.13641668	     -2.30073819	      0.00000000	      0.00000000	      0.00000000	      0.00000000	      0.92452487	      0.85093815	     -0.21658611	      0.89915554	      0.85703441	     -0.45037163	      0.87900170	      0.86653879	     -0.32313650	      0.73299855	      0.94497799	     -0.27855580	      0.72356892	      0.94276988	     -0.33239907	      0.80258172	      0.81484482	     -0.23874514	      0.78695256	      0.81651918	     -0.39139465	      0.79476714	      0.81568200	     -0.31506989	      1.00421910	      0.47658886	     -0.18495993	      0.99385792	      0.47225476	     -0.30148879	      1.07651134	      0.66665340	     -0.27219926	      0.99830895	      0.68558305	     -0.21340600	      1.02558288	      0.60192952	     -0.21095747	      0.86829927	      0.10629915	     -0.17380356	      0.89555671	      0.09848350	     -0.24366214	      0.88254095	      0.18743959	     -0.11186611	      0.88836282	      0.19233823	     -0.15550663	      0.97735212	      0.47444212	     -0.24383340	      0.88559460	      0.11346095	     -0.22307912	      0.97166456	      0.05039756	     -0.16067532	      0.81480051	      0.41700197	     -0.43479754	      0.79473366	      0.43345467	     -0.31364434	      0.86421320	      0.54225469	     -0.51952561	      0.79719704	      0.59784855	     -0.47391736	      0.79951667	      0.51163724	     -0.45536993	      0.68002389	      0.06001302	     -0.41440188	      0.69125617	      0.06835717	     -0.34512741	      0.80592554	      0.15657873	     -0.35420293	      0.76676509	      0.16441874	     -0.36795804	      0.77345364	      0.43877611	     -0.37142376	      0.69091763	      0.07507293	     -0.36333739	      0.79541655	      0.02530601	     -0.38979816	      0.90361543	      1.32135367	     -0.26660907	      0.89891929	      1.31726594	     -0.37232794	      0.77422076	      1.36816421	     -0.31124447	      0.89811033	      1.31572563	     -0.31865375	      0.94478882	      1.25069690	     -0.32205087	      0.80161400	      0.82325200	     -0.30914500	      0.79632000	      0.80561800	     -0.23377900	      0.77658000	      0.80877700	     -0.38458700	      0.97376600	      0.46176200	     -0.23457500	      0.76829900	      0.42553100	     -0.37105400	      0.88243200	      0.10401700	     -0.25009600	      0.68682500	      0.06856500	     -0.35155800	      0.87946400	      0.87746000	     -0.31682000	      0.89077700	      0.87508400	     -0.20089300	      0.86815100	      0.87983600	     -0.43274700	      0.69204100	      0.94337700	     -0.26228200	      0.68404000	      0.94162700	     -0.31634300	      0.97879900	      0.46422600	     -0.17684700	      0.77782500	      0.42330700	     -0.42822300	      0.97973000	      0.46711800	     -0.29284100	      0.78089200	      0.44142800	     -0.30788500	      0.86875500	      0.10588000	     -0.21255300	      0.67559900	      0.06903000	     -0.38994800	      0.89927600	      0.10806100	     -0.28158200	      0.69530100	      0.07878500	     -0.32582400	      0.77667400	      1.37859100	     -0.31114400	      0.90332700	      1.32031000	     -0.26697300	      0.89856400	      1.31497700	     -0.37315000	      0.89756000	      1.31436300	     -0.31914800	      0.93832700	      1.24546100	     -0.32141000	      1.05430800	      0.66080000	     -0.25495000	      0.82401400	      0.55406400	     -0.51863300	      0.97815000	      0.67535000	     -0.19272500	      0.76216600	      0.60637100	     -0.46593400	      1.00940600	      0.59265900	     -0.19622200	      0.76836900	      0.52107800	     -0.44870800	      0.88017700	      0.18146800	     -0.13758700	      0.80347800	      0.17363100	     -0.34576200	      0.88728900	      0.18941900	     -0.18135500	      0.76320900	      0.18069300	     -0.35680900	      0.96803100	      0.05828800	     -0.21966700	      0.79084100	      0.04161300	     -0.37555600	      0.00000000	      0.00000000	      0.00000000	      1.18440051	      0.00000000	     -0.25112186	      7.48798417	    528.96297708	     32.58383961	      0.78098334	      0.00000000	     -0.37228021	      0.00000000	      0.00000000	      0.00000000	      0.00000000	     -1.83778369	      0.00000000	      0.80161381	      0.82325161	     -0.30914468	      0.79632020	      0.80561841	     -0.23377873	      0.77657998	      0.80877686	     -0.38458708	      0.97376597	      0.46176237	     -0.23457539	      0.76829904	      0.42553142	     -0.37105435	      0.88243169	      0.10401736	     -0.25009564	      0.68682498	      0.06856479	     -0.35155815	      0.87946403	      0.87746000	     -0.31681970	      0.89077687	      0.87508398	     -0.20089288	      0.86815119	      0.87983602	     -0.43274653	      0.69204104	      0.94337672	     -0.26228198	      0.68403959	      0.94162673	     -0.31634253	      0.97879928	      0.46422601	     -0.17684676	      0.77782542	      0.42330685	     -0.42822340	      0.97972977	      0.46711800	     -0.29284108	      0.78089166	      0.44142807	     -0.30788520	      0.86875492	      0.10588038	     -0.21255267	      0.67559880	      0.06903035	     -0.38994768	      0.89927608	      0.10806094	     -0.28158233	      0.69530141	      0.07878483	     -0.32582408	      0.77667433	      1.37859118	     -0.31114352	      0.90332723	      1.32030988	     -0.26697272	      0.89856392	      1.31497693	     -0.37315002	      0.89755988	      1.31436265	     -0.31914788	      0.93832701	      1.24546099	     -0.32141027	      1.05430794	      0.66080028	     -0.25495026	      0.82401371	      0.55406368	     -0.51863325	      0.97815007	      0.67534965	     -0.19272469	      0.76216573	      0.60637110	     -0.46593365	      1.00940621	      0.59265906	     -0.19622207	      0.76836854	      0.52107775	     -0.44870815	      0.88017666	      0.18146755	     -0.13758686	      0.80347776	      0.17363086	     -0.34576240	      0.88728940	      0.18941902	     -0.18135466	      0.76320916	      0.18069342	     -0.35680899	      0.96803075	      0.05828832	     -0.21966699	      0.79084092	      0.04161271	     -0.37555629
      0.38333000	      0.87494675	      0.86701951	     -0.32162468	     -7.05273762	     -0.20502713	      6.05263285	     34.03728646	     -2.41249231	      1.05681848	    -38.40842942	      1.65049892	      4.31868561	      3.36774576	     15.36155095	    -11.03813253	     10.55452860	     -2.59994903	     -0.06873460	     -2.40696606	      0.00000000	      0.00000000	      0.00000000	      0.00000000	      0.93349517	      0.84996399	     -0.21655461	      0.90736989	      0.85571029	     -0.45026573	      0.88764227	      0.86544394	     -0.32298114	      0.74187479	      0.94412224	     -0.27805192	      0.73226697	      0.94183764	     -0.33186048	      0.81143934	      0.81397427	     -0.23825707	      0.79531395	      0.81541906	     -0.39085730	      0.80337664	      0.81469667	     -0.31455719	      1.01471363	      0.47657298	     -0.18527118	      1.00336408	      0.47187491	     -0.30169382	      1.08558683	      0.66664095	     -0.27365982	      1.00782820	      0.68546448	     -0.21424717	      1.03541443	      0.60191335	     -0.21180100	      0.89826878	      0.10093531	     -0.17359295	      0.92517486	      0.09471450	     -0.24374735	      0.90880630	      0.18260567	     -0.11161105	      0.91390345	      0.18788861	     -0.15529738	      0.98679138	      0.47450232	     -0.24385949	      0.91464298	      0.10910091	     -0.22302685	      1.00468497	      0.05075780	     -0.16164457	      0.81797506	      0.41555882	     -0.43411911	      0.79787103	      0.43230334	     -0.31301206	      0.86921666	      0.54012832	     -0.51876804	      0.80284422	      0.59661298	     -0.47331324	      0.80398588	      0.51038288	     -0.45474325	      0.68003165	      0.05995602	     -0.41365431	      0.69120911	      0.06826423	     -0.34436666	      0.80667357	      0.15545637	     -0.35330881	      0.76760981	      0.16363083	     -0.36714391	      0.77673947	      0.43791473	     -0.37084633	      0.69096394	      0.07496588	     -0.36258333	      0.79533432	      0.02486974	     -0.38892997	      0.91296760	      1.32025098	     -0.26672497	      0.90813455	      1.31608637	     -0.37243467	      0.78358404	      1.36720943	     -0.31123704	      0.90738999	      1.31458962	     -0.31875832	      0.95397216	      1.24949219	     -0.32216178	      0.81029100	      0.82241300	     -0.30918900	      0.80492600	      0.80482400	     -0.23335700	      0.78474200	      0.80788600	     -0.38410800	      0.98371500	      0.46147500	     -0.23514100	      0.77142300	      0.42514300	     -0.37072400	      0.91163800	      0.09888400	     -0.24870600	      0.68680000	      0.06880400	     -0.35137500	      0.88789500	      0.87651800	     -0.31670000	      0.89956200	      0.87421800	     -0.20067800	      0.87622800	      0.87881900	     -0.43272100	      0.70088700	      0.94255800	     -0.26177300	      0.69271500	      0.94086200	     -0.31576000	      0.98919400	      0.46402900	     -0.17745700	      0.78104500	      0.42281000	     -0.42787300	      0.98785200	      0.46712700	     -0.29519500	      0.78327100	      0.44116600	     -0.30712000	      0.89807300	      0.10017400	     -0.21109800	      0.67566500	      0.06936200	     -0.38979000	      0.92698800	      0.10323800	     -0.28089900	      0.69664600	      0.07881500	     -0.32557300	      0.78619400	      1.37761700	     -0.31116900	      0.91257200	      1.31920300	     -0.26689600	      0.90782700	      1.31419000	     -0.37309400	      0.90682200	      1.31340200	     -0.31920000	      0.94751300	      1.24448200	     -0.32155000	      1.06280000	      0.66069800	     -0.25631900	      0.82906900	      0.55323300	     -0.51793300	      0.98675300	      0.67493700	     -0.19348000	      0.76779800	      0.60598900	     -0.46581300	      1.01821000	      0.59157700	     -0.19779900	      0.77276900	      0.52040400	     -0.44823500	      0.90577900	      0.17653300	     -0.13653500	      0.80447400	      0.17282200	     -0.34530600	      0.91140400	      0.18373200	     -0.18108900	      0.76412000	      0.18062800	     -0.35633100	      0.99955100	      0.05824300	     -0.21870300	      0.79091100	      0.04156200	     -0.37539200	      0.00000000	      0.00000000	      0.00000000	      1.18769385	      0.00000000	     -0.25027411	     10.79134575	    533.06790433	     32.94425389	      0.78341443	      0.00000000	     -0.37241925	      0.00000000	      0.00000000	      0.00000000	      0.00000000	     -1.95287085	      0.00000000	      0.81029075	      0.82241297	     -0.30918938	      0.80492640	      0.80482382	     -0.23335692	      0.78474182	      0.80788606	     -0.38410842	      0.98371452	      0.46147516	     -0.23514128	      0.77142251	      0.42514336	     -0.37072450	      0.91163808	      0.09888386	     -0.24870577	      0.68680000	      0.06880362	     -0.35137549	      0.88789505	      0.87651825	     -0.31669965	      0.89956230	      0.87421757	     -0.20067793	      0.87622780	      0.87881899	     -0.43272138	      0.70088691	      0.94255751	     -0.26177284	      0.69271505	      0.94086170	     -0.31575954	      0.98919410	      0.46402869	     -0.17745720	      0.78104466	      0.42281011	     -0.42787313	      0.98785156	      0.46712697	     -0.29519537	      0.78327131	      0.44116601	     -0.30711961	      0.89807284	      0.10017350	     -0.21109834	      0.67566496	      0.06936204	     -0.38979036	      0.92698836	      0.10323790	     -0.28089923	      0.69664621	      0.07881463	     -0.32557335	      0.78619397	      1.37761712	     -0.31116945	      0.91257226	      1.31920290	     -0.26689631	      0.90782750	      1.31418967	     -0.37309432	      0.90682238	      1.31340230	     -0.31919956	      0.94751287	      1.24448240	     -0.32155043	      1.06279993	      0.66069794	     -0.25631899	      0.82906950	      0.55323285	     -0.51793343	      0.98675263	      0.67493713	     -0.19347979	      0.76779830	      0.60598886	     -0.46581349	      1.01820993	      0.59157681	     -0.19779882	      0.77276903	      0.52040434	     -0.44823506	      0.90577930	      0.17653327	     -0.13653459	      0.80447352	      0.17282222	     -0.34530631	      0.91140383	      0.18373249	     -0.18108860	      0.76412040	      0.18062794	     -0.35633096	      0.99955070	      0.05824261	     -0.21870261	      0.79091090	      0.04156197	     -0.37539163
